<?xml version="1.0" encoding="UTF-8" standalone="no"?>
<!-- Created with Inkscape (http://www.inkscape.org/) -->

<svg
   xmlns:dc="http://purl.org/dc/elements/1.1/"
   xmlns:cc="http://creativecommons.org/ns#"
   xmlns:rdf="http://www.w3.org/1999/02/22-rdf-syntax-ns#"
   xmlns:svg="http://www.w3.org/2000/svg"
   xmlns="http://www.w3.org/2000/svg"
   xmlns:sodipodi="http://sodipodi.sourceforge.net/DTD/sodipodi-0.dtd"
   xmlns:inkscape="http://www.inkscape.org/namespaces/inkscape"
   width="248.14029"
   height="97.437523"
   id="svg3132"
   version="1.1"
   inkscape:version="0.48.5 r10040"
   sodipodi:docname="New document 2">
  <defs
     id="defs3" />
  <sodipodi:namedview
     inkscape:document-units="mm"
     id="base"
     pagecolor="#ffffff"
     bordercolor="#666666"
     borderopacity="1.0"
     inkscape:pageopacity="0.0"
     inkscape:pageshadow="2"
     inkscape:zoom="2.090024"
     inkscape:cx="103.42704"
     inkscape:cy="48.718763"
     inkscape:current-layer="layer1"
     showgrid="false"
     units="mm"
     fit-margin-top="0"
     fit-margin-left="0"
     fit-margin-right="0"
     fit-margin-bottom="0"
     inkscape:window-width="1440"
     inkscape:window-height="837"
     inkscape:window-x="0"
     inkscape:window-y="0"
     inkscape:window-maximized="1" />
  <metadata
     id="metadata4">
    <rdf:RDF>
      <cc:Work
         rdf:about="">
        <dc:format>image/svg+xml</dc:format>
        <dc:type
           rdf:resource="http://purl.org/dc/dcmitype/StillImage" />
        <dc:title></dc:title>
      </cc:Work>
    </rdf:RDF>
  </metadata>
  <g
     inkscape:label="Layer 1"
     inkscape:groupmode="layer"
     id="layer1"
     transform="translate(-6.9463253e-6,0)">
    <path
       id="path3180"
       style="font-size:41.24921036px;font-style:normal;font-variant:normal;font-weight:normal;font-stretch:normal;text-align:end;line-height:100%;letter-spacing:1.03123021px;word-spacing:0px;text-anchor:end;fill:#000000;fill-opacity:1;stroke:none;font-family:BigNoodleTitling;-inkscape-font-specification:BigNoodleTitling"
       d="M 136.2584,82.116472 L 136.2584,67.802996 L 140.21832,67.802996 L 140.21832,97.41993 L 136.2584,97.41993 L 136.2584,91.521292 L 132.00973,78.032801 L 132.00973,97.41993 L 128.0498,97.41993 L 128.0498,67.802996 L 132.00973,67.802996 L 136.2584,82.116472 M 114.36989,97.41993 L 114.36989,67.802996 L 124.1872,67.802996 L 124.1872,71.391678 L 118.32981,71.391678 L 118.32981,80.384006 L 123.52721,80.384006 L 123.52721,83.972687 L 118.32981,83.972687 L 118.32981,93.831248 L 124.1872,93.831248 L 124.1872,97.41993 L 114.36989,97.41993 M 104.13622,86.571387 L 104.13622,82.982706 L 110.1586,82.982706 L 110.1586,97.41993 L 102.40375,97.41993 C 99.351304,97.41993 97.825085,95.756213 97.825086,92.428775 L 97.825086,72.876649 C 97.825085,69.494242 99.351304,67.803026 102.40375,67.802996 L 105.1262,67.802996 C 108.48112,67.803026 110.15859,69.521741 110.1586,72.959148 L 110.1586,76.176586 L 106.19868,76.176586 L 106.19868,73.536637 C 106.19867,72.106689 105.63493,71.391704 104.50746,71.391678 L 103.51748,71.391678 C 102.36249,71.391704 101.78501,72.106689 101.78501,73.536637 L 101.78501,91.686289 C 101.78501,93.116266 102.36249,93.831252 103.51748,93.831248 L 106.19868,93.831248 L 106.19868,86.571387 L 104.13622,86.571387 M 84.35142,97.41993 L 84.35142,67.802996 L 94.168732,67.802996 L 94.168732,71.391678 L 88.311344,71.391678 L 88.311344,80.384006 L 93.508745,80.384006 L 93.508745,83.972687 L 88.311344,83.972687 L 88.311344,93.831248 L 94.168732,93.831248 L 94.168732,97.41993 L 84.35142,97.41993 M 75.666526,97.41993 L 75.666526,67.802996 L 79.626451,67.802996 L 79.626451,97.41993 L 75.666526,97.41993 M 67.401217,75.764094 L 67.401217,73.165394 C 67.401207,71.982942 66.823719,71.391704 65.66875,71.391678 L 65.050012,71.391678 C 63.922527,71.391704 63.358789,71.982942 63.358794,73.165394 L 63.358794,78.07405 C 63.358789,78.624058 63.468786,78.995301 63.688788,79.187779 C 63.908777,79.380293 64.26627,79.627788 64.761267,79.930264 L 68.514945,81.951476 C 69.339918,82.418982 69.917406,82.790224 70.247412,83.065204 C 70.604893,83.312714 70.879887,83.628957 71.072396,84.013936 C 71.264879,84.371442 71.361127,85.072678 71.361141,86.117646 L 71.361141,92.428775 C 71.361127,95.756213 69.766159,97.41993 66.576232,97.41993 L 64.142529,97.41993 C 60.980086,97.41993 59.398868,95.604966 59.39887,91.975034 L 59.39887,90.490062 L 63.358794,90.490062 L 63.358794,92.098781 C 63.358789,93.253763 63.950027,93.831252 65.13251,93.831248 L 65.833747,93.831248 C 66.878718,93.831252 67.401207,93.253763 67.401217,92.098781 L 67.401217,87.066378 C 67.401207,86.516399 67.291209,86.145157 67.071223,85.952649 C 66.851218,85.760164 66.493725,85.512669 65.998743,85.210163 L 62.245065,83.106454 C 61.420078,82.666477 60.81509,82.295234 60.4301,81.992725 C 60.072605,81.690246 59.81136,81.305254 59.646365,80.837747 C 59.481367,80.342773 59.398868,79.710286 59.39887,78.940283 L 59.39887,72.876649 C 59.398868,69.494242 60.980086,67.803026 64.142529,67.802996 L 66.617482,67.802996 C 69.779909,67.803026 71.361127,69.494242 71.361141,72.876649 L 71.361141,75.764094 L 67.401217,75.764094 M 131.27239,56.170719 L 131.27239,26.553786 L 141.0897,26.553786 L 141.0897,30.142467 L 135.23232,30.142467 L 135.23232,39.134795 L 140.42972,39.134795 L 140.42972,42.723477 L 135.23232,42.723477 L 135.23232,52.582038 L 141.0897,52.582038 L 141.0897,56.170719 L 131.27239,56.170719 M 127.17519,49.240852 L 127.17519,51.138315 C 127.17518,54.493253 125.59396,56.170719 122.43153,56.170719 L 119.87408,56.170719 C 116.71164,56.170719 115.13042,54.493253 115.13042,51.138315 L 115.13042,31.58619 C 115.13042,28.231282 116.71164,26.553816 119.87408,26.553786 L 122.43153,26.553786 C 125.59396,26.553816 127.17518,28.231282 127.17519,31.58619 L 127.17519,34.927376 L 123.21527,34.927376 L 123.21527,31.874934 C 123.21526,30.719982 122.62402,30.142493 121.44155,30.142467 L 120.65782,30.142467 C 119.61283,30.142493 119.09034,30.719982 119.09035,31.874934 L 119.09035,50.849571 C 119.09034,52.004553 119.61283,52.582041 120.65782,52.582038 L 121.6478,52.582038 C 122.69277,52.582041 123.21526,52.004553 123.21527,50.849571 L 123.21527,49.240852 L 127.17519,49.240852 M 102.34897,56.170719 L 98.389044,56.170719 L 98.389044,31.627439 C 98.389043,28.245032 99.970261,26.553816 103.1327,26.553786 L 106.10265,26.553786 C 109.26507,26.553816 110.84629,28.245032 110.84631,31.627439 L 110.84631,56.170719 L 106.88638,56.170719 L 106.88638,45.322177 L 102.34897,45.322177 L 102.34897,56.170719 M 106.88638,41.733496 L 106.88638,31.874934 C 106.88637,30.719982 106.30888,30.142493 105.15391,30.142467 L 104.08144,30.142467 C 102.92645,30.142493 102.34896,30.719982 102.34897,31.874934 L 102.34897,41.733496 L 106.88638,41.733496 M 82.417861,26.553786 L 89.636473,26.553786 C 92.8264,26.553816 94.421368,28.245032 94.421381,31.627439 L 94.421381,40.413521 C 94.421368,43.768469 92.840149,45.445935 89.677722,45.445924 L 86.377785,45.445924 L 86.377785,56.170719 L 82.417861,56.170719 L 82.417861,26.553786 M 86.377785,41.857243 L 88.893987,41.857243 C 89.938958,41.857257 90.461447,41.279769 90.461457,40.124776 L 90.461457,31.874934 C 90.461447,30.719982 89.870209,30.142493 88.687741,30.142467 L 86.377785,30.142467 L 86.377785,41.857243 M 74.152552,34.514884 L 74.152552,31.916183 C 74.152543,30.733732 73.575055,30.142493 72.420086,30.142467 L 71.801347,30.142467 C 70.673863,30.142493 70.110124,30.733732 70.11013,31.916183 L 70.11013,36.824839 C 70.110124,37.374848 70.220122,37.74609 70.440123,37.938568 C 70.660113,38.131083 71.017606,38.378578 71.512603,38.681054 L 75.266281,40.702265 C 76.091254,41.169771 76.668742,41.541014 76.998748,41.815994 C 77.356228,42.063503 77.631223,42.379747 77.823732,42.764726 C 78.016215,43.122232 78.112463,43.823468 78.112477,44.868436 L 78.112477,51.179565 C 78.112463,54.507003 76.517495,56.170719 73.327568,56.170719 L 70.893865,56.170719 C 67.731422,56.170719 66.150204,54.355756 66.150206,50.725823 L 66.150206,49.240852 L 70.11013,49.240852 L 70.11013,50.849571 C 70.110124,52.004553 70.701362,52.582041 71.883846,52.582038 L 72.585082,52.582038 C 73.630053,52.582041 74.152543,52.004553 74.152552,50.849571 L 74.152552,45.817167 C 74.152543,45.267189 74.042545,44.895946 73.822559,44.703439 C 73.602554,44.510954 73.245061,44.263459 72.750079,43.960953 L 68.996401,41.857243 C 68.171413,41.417266 67.566426,41.046024 67.181436,40.743514 C 66.823941,40.441036 66.562696,40.056044 66.397701,39.588537 C 66.232702,39.093563 66.150204,38.461076 66.150206,37.691073 L 66.150206,31.627439 C 66.150204,28.245032 67.731422,26.553816 70.893865,26.553786 L 73.368817,26.553786 C 76.531245,26.553816 78.112463,28.245032 78.112477,31.627439 L 78.112477,34.514884 L 74.152552,34.514884 M 54.184067,56.170719 L 50.224143,56.170719 L 50.224143,26.553786 L 54.184067,26.553786 L 54.184067,56.170719 M 63.300143,56.170719 L 59.340219,56.170719 L 54.390314,41.692246 L 54.390314,41.444751 L 58.515235,26.553786 L 62.145165,26.553786 L 57.978995,41.279754 L 63.300143,56.170719 M 46.126937,49.240852 L 46.126937,51.138315 C 46.126923,54.493253 44.545705,56.170719 41.383277,56.170719 L 38.825826,56.170719 C 35.663384,56.170719 34.082166,54.493253 34.082167,51.138315 L 34.082167,31.58619 C 34.082166,28.231282 35.663384,26.553816 38.825826,26.553786 L 41.383277,26.553786 C 44.545705,26.553816 46.126923,28.231282 46.126937,31.58619 L 46.126937,34.927376 L 42.167012,34.927376 L 42.167012,31.874934 C 42.167003,30.719982 41.575765,30.142493 40.393296,30.142467 L 39.609561,30.142467 C 38.564575,30.142493 38.042086,30.719982 38.042091,31.874934 L 38.042091,50.849571 C 38.042086,52.004553 38.564575,52.582041 39.609561,52.582038 L 40.599543,52.582038 C 41.644513,52.582041 42.167003,52.004553 42.167012,50.849571 L 42.167012,49.240852 L 46.126937,49.240852 M 21.300713,56.170719 L 17.340788,56.170719 L 17.340788,31.627439 C 17.340787,28.245032 18.922005,26.553816 22.084448,26.553786 L 25.054391,26.553786 C 28.216818,26.553816 29.798036,28.245032 29.79805,31.627439 L 29.79805,56.170719 L 25.838126,56.170719 L 25.838126,45.322177 L 21.300713,45.322177 L 21.300713,56.170719 M 25.838126,41.733496 L 25.838126,31.874934 C 25.838116,30.719982 25.260627,30.142493 24.105659,30.142467 L 23.03318,30.142467 C 21.878195,30.142493 21.300707,30.719982 21.300713,31.874934 L 21.300713,41.733496 L 25.838126,41.733496 M 8.827338,56.170719 L 8.827338,42.723477 L 3.9599311,42.723477 L 3.9599311,56.170719 L 6.9463253e-6,56.170719 L 6.9463253e-6,26.553786 L 3.9599311,26.553786 L 3.9599311,39.134795 L 8.827338,39.134795 L 8.827338,26.553786 L 12.787262,26.553786 L 12.787262,56.170719 L 8.827338,56.170719" />
    <path
       style="font-size:medium;font-style:normal;font-variant:normal;font-weight:normal;font-stretch:normal;text-indent:0;text-align:start;text-decoration:none;line-height:normal;letter-spacing:normal;word-spacing:normal;text-transform:none;direction:ltr;block-progression:tb;writing-mode:lr-tb;text-anchor:start;baseline-shift:baseline;color:#000000;fill:#000000;fill-opacity:1;stroke:none;stroke-width:0.40000001;marker:none;visibility:visible;display:inline;overflow:visible;enable-background:accumulate;font-family:Sans;-inkscape-font-specification:Sans"
       d="M 175.54655,0 L 150.7028,24.8438 L 150.7028,25.3125 L 176.0153,0 L 175.54655,0 z M 178.98405,0 L 150.7028,28.2812 L 150.7028,28.75 L 179.4528,0 L 178.98405,0 z M 182.3903,0 L 150.7028,31.75 L 150.7028,32.2188 L 182.85905,0 L 182.3903,0 z M 185.85905,0 L 150.7028,35.1562 L 150.7028,35.6562 L 186.3278,0 L 185.85905,0 z M 189.29655,0 L 150.7028,38.5938 L 150.7028,39.0938 L 189.79655,0 L 189.29655,0 z M 192.73405,0 L 150.7028,42.0938 L 150.7028,42.5625 L 193.2653,0 L 192.73405,0 z M 196.2028,0 L 150.7028,45.50002 L 150.7028,46.00002 L 196.67155,0 L 196.2028,0 z M 199.6403,0 L 150.7028,48.93752 L 150.7028,49.43752 L 200.1403,0 L 199.6403,0 z M 203.0778,0 L 191.5153,11.5625 L 192.04655,11.5625 L 203.60905,0 L 203.0778,0 z M 206.54655,0 L 194.98405,11.5625 L 195.4528,11.5625 L 207.0153,0 L 206.54655,0 z M 209.98405,0 L 198.42155,11.5625 L 198.8903,11.5625 L 210.4528,0 L 209.98405,0 z M 213.4528,0 L 201.8903,11.5625 L 202.35905,11.5625 L 213.92155,0 L 213.4528,0 z M 216.85905,0 L 205.29655,11.5625 L 205.79655,11.5625 L 217.35905,0 L 216.85905,0 z M 220.29655,0 L 208.73405,11.5625 L 209.2028,11.5625 L 220.7653,0 L 220.29655,0 z M 223.7653,0 L 212.2028,11.5625 L 212.67155,11.5625 L 224.23405,0 L 223.7653,0 z M 227.2028,0 L 213.9528,13.25 L 213.9528,13.7188 L 227.67155,0 L 227.2028,0 z M 230.60905,0 L 214.17155,16.4375 L 214.7028,16.4375 L 231.1403,0 L 230.60905,0 z M 234.0778,0 L 217.6403,16.4375 L 218.1403,16.4375 L 234.5778,0 L 234.0778,0 z M 237.54655,0 L 218.8278,18.7188 L 218.8278,19.1875 L 238.0153,0 L 237.54655,0 z M 240.98405,0 L 219.67155,21.3125 L 220.2028,21.3125 L 241.5153,0 L 240.98405,0 z M 244.42155,0 L 223.10905,21.3125 L 223.5778,21.3125 L 244.8903,0 L 244.42155,0 z M 247.8903,0 L 223.7028,24.1875 L 223.7028,24.6562 L 248.1403,0.2188 L 248.1403,0 L 247.8903,0 z M 248.1403,3.2188 L 223.7028,27.625 L 223.7028,28.125 L 248.1403,3.6875 L 248.1403,3.2188 z M 248.1403,6.625 L 223.7028,31.0625 L 223.7028,31.5625 L 248.1403,7.125 L 248.1403,6.625 z M 248.1403,10.0625 L 223.7028,34.5 L 223.7028,35 L 248.1403,10.5625 L 248.1403,10.0625 z M 189.60905,13.4688 L 150.7028,52.40622 L 150.7028,52.90622 L 189.60905,14 L 189.60905,13.4688 z M 248.1403,13.5312 L 223.7028,37.9688 L 223.7028,38.4375 L 248.1403,14 L 248.1403,13.5312 z M 194.48405,16.4375 L 194.48405,26.1562 L 199.35905,26.1562 L 199.35905,16.4375 L 194.48405,16.4375 z M 199.35905,26.1562 L 199.35905,35.9062 L 204.23405,35.9062 L 204.23405,26.1562 L 199.35905,26.1562 z M 204.23405,26.1562 L 209.0778,26.1562 L 213.9528,26.1562 L 213.9528,21.3125 L 209.0778,21.3125 L 209.0778,16.4375 L 204.23405,16.4375 L 204.23405,26.1562 z M 213.9528,26.1562 L 213.9528,40.7812 L 218.8278,40.7812 L 218.8278,26.1562 L 213.9528,26.1562 z M 213.9528,40.7812 L 209.0778,40.7812 L 209.0778,45.65622 L 213.9528,45.65622 L 213.9528,40.7812 z M 199.35905,35.9062 L 194.48405,35.9062 L 194.48405,45.65622 L 199.35905,45.65622 L 199.35905,35.9062 z M 194.48405,35.9062 L 194.48405,26.1562 L 189.60905,26.1562 L 189.60905,35.9062 L 194.48405,35.9062 z M 189.60905,35.9062 L 184.73405,35.9062 L 184.73405,45.65622 L 189.60905,45.65622 L 189.60905,35.9062 z M 189.60905,16.9375 L 185.23405,21.3125 L 185.7028,21.3125 L 189.60905,17.4062 L 189.60905,16.9375 z M 248.1403,16.9688 L 223.7028,41.4062 L 223.7028,41.875 L 248.1403,17.4375 L 248.1403,16.9688 z M 189.60905,20.375 L 188.67155,21.3125 L 189.1403,21.3125 L 189.60905,20.8438 L 189.60905,20.375 z M 248.1403,20.4062 L 223.7028,44.8438 L 223.7028,45.31252 L 248.1403,20.875 L 248.1403,20.4062 z M 184.73405,21.8125 L 150.7028,55.84382 L 150.7028,56.34382 L 184.73405,22.2812 L 184.73405,21.8125 z M 248.1403,23.8438 L 221.48405,50.50002 L 221.98405,50.50002 L 248.1403,24.3438 L 248.1403,23.8438 z M 184.73405,25.25 L 150.7028,59.28122 L 150.7028,59.78122 L 184.73405,25.7188 L 184.73405,25.25 z M 248.1403,27.2812 L 224.92155,50.50002 L 225.42155,50.50002 L 248.1403,27.7812 L 248.1403,27.2812 z M 184.73405,28.7188 L 182.42155,31.0312 L 182.8903,31.0312 L 184.73405,29.1875 L 184.73405,28.7188 z M 248.1403,30.75 L 228.3903,50.50002 L 228.85905,50.50002 L 248.1403,31.25 L 248.1403,30.75 z M 179.8903,33.5625 L 162.9528,50.50002 L 163.42155,50.50002 L 179.8903,34.0312 L 179.8903,33.5625 z M 248.1403,34.1875 L 231.8278,50.50002 L 232.3278,50.50002 L 248.1403,34.6875 L 248.1403,34.1875 z M 179.8903,37 L 166.3903,50.50002 L 166.85905,50.50002 L 179.8903,37.4688 L 179.8903,37 z M 248.1403,37.625 L 233.42155,52.34382 L 233.42155,52.81252 L 248.1403,38.0938 L 248.1403,37.625 z M 179.8903,40.4375 L 169.8278,50.50002 L 170.29655,50.50002 L 179.8903,40.9062 L 179.8903,40.4375 z M 248.1403,41.125 L 233.42155,55.81252 L 233.42155,56.28122 L 248.1403,41.5938 L 248.1403,41.125 z M 179.8903,43.875 L 173.2653,50.50002 L 173.73405,50.50002 L 179.8903,44.3438 L 179.8903,43.875 z M 248.1403,44.5 L 233.42155,59.21882 L 233.42155,59.71882 L 248.1403,45 L 248.1403,44.5 z M 219.4528,45.65622 L 218.8278,46.28122 L 218.8278,46.75002 L 219.92155,45.65622 L 219.4528,45.65622 z M 222.8903,45.65622 L 218.8278,49.71882 L 218.8278,50.18752 L 223.35905,45.65622 L 222.8903,45.65622 z M 179.8903,47.31252 L 176.7028,50.50002 L 177.2028,50.50002 L 179.8903,47.81252 L 179.8903,47.31252 z M 248.1403,47.96882 L 233.42155,62.68752 L 233.42155,63.18752 L 248.1403,48.46882 L 248.1403,47.96882 z M 184.73405,50.50002 L 184.73405,55.37502 L 189.60905,55.37502 L 189.60905,60.25002 L 194.48405,60.25002 L 194.48405,50.50002 L 184.73405,50.50002 z M 194.48405,60.25002 L 194.48405,65.12502 L 199.35905,65.12502 L 199.35905,60.25002 L 194.48405,60.25002 z M 199.35905,50.50002 L 199.35905,55.37502 L 204.23405,55.37502 L 204.23405,60.25002 L 209.0778,60.25002 L 209.0778,50.50002 L 199.35905,50.50002 z M 248.1403,51.43752 L 233.42155,66.15622 L 233.42155,66.62502 L 248.1403,51.90622 L 248.1403,51.43752 z M 160.3903,53.06252 L 150.7028,62.75002 L 150.7028,63.21882 L 160.3903,53.53122 L 160.3903,53.06252 z M 248.1403,54.84382 L 233.42155,69.56252 L 233.42155,70.03122 L 248.1403,55.31252 L 248.1403,54.84382 z M 165.2653,55.37502 L 165.2653,60.25002 L 179.8903,60.25002 L 179.8903,55.37502 L 165.2653,55.37502 z M 213.9528,55.37502 L 213.9528,60.25002 L 228.5778,60.25002 L 228.5778,55.37502 L 213.9528,55.37502 z M 160.3903,56.50002 L 150.7028,66.18752 L 150.7028,66.65622 L 160.3903,56.96882 L 160.3903,56.50002 z M 248.1403,58.31252 L 233.42155,73.03122 L 233.42155,73.50002 L 248.1403,58.78122 L 248.1403,58.31252 z M 160.3903,59.93752 L 150.7028,69.62502 L 150.7028,70.12502 L 160.3903,60.43752 L 160.3903,59.93752 z M 248.1403,61.75002 L 212.4528,97.43752 L 212.9528,97.43752 L 248.1403,62.21882 L 248.1403,61.75002 z M 160.3903,63.37502 L 150.7028,73.06252 L 150.7028,73.53122 L 160.3903,63.84382 L 160.3903,63.37502 z M 165.2653,65.12502 L 165.2653,70.00002 L 179.8903,70.00002 L 179.8903,65.12502 L 165.2653,65.12502 z M 213.9528,65.12502 L 213.9528,70.00002 L 228.5778,70.00002 L 228.5778,65.12502 L 213.9528,65.12502 z M 248.1403,65.18752 L 215.85905,97.43752 L 216.3278,97.43752 L 248.1403,65.65622 L 248.1403,65.18752 z M 160.3903,66.81252 L 150.7028,76.50002 L 150.7028,77.00002 L 160.3903,67.31252 L 160.3903,66.81252 z M 248.1403,68.62502 L 219.3278,97.43752 L 219.79655,97.43752 L 248.1403,69.09382 L 248.1403,68.62502 z M 160.3903,70.28122 L 150.7028,79.96882 L 150.7028,80.46882 L 160.3903,70.78122 L 160.3903,70.28122 z M 248.1403,72.06252 L 222.7653,97.43752 L 223.2653,97.43752 L 248.1403,72.56252 L 248.1403,72.06252 z M 160.3903,73.71882 L 150.7028,83.40622 L 150.7028,83.87502 L 160.3903,74.18752 L 160.3903,73.71882 z M 162.67155,74.87502 L 150.7028,86.84382 L 150.7028,87.34382 L 163.17155,74.87502 L 162.67155,74.87502 z M 166.1403,74.87502 L 150.7028,90.31252 L 150.7028,90.78122 L 166.60905,74.87502 L 166.1403,74.87502 z M 169.54655,74.87502 L 150.7028,93.71882 L 150.7028,94.21882 L 170.04655,74.87502 L 169.54655,74.87502 z M 173.0153,74.87502 L 150.7028,97.18752 L 150.7028,97.43752 L 150.8903,97.43752 L 173.4528,74.87502 L 173.0153,74.87502 z M 176.42155,74.87502 L 153.8278,97.43752 L 154.3903,97.43752 L 176.9528,74.87502 L 176.42155,74.87502 z M 179.85905,74.87502 L 157.29655,97.43752 L 157.79655,97.43752 L 180.35905,74.87502 L 179.85905,74.87502 z M 183.3278,74.87502 L 160.7653,97.43752 L 161.23405,97.43752 L 183.79655,74.87502 L 183.3278,74.87502 z M 186.7653,74.87502 L 164.2028,97.43752 L 164.7028,97.43752 L 187.2653,74.87502 L 186.7653,74.87502 z M 190.2028,74.87502 L 167.6403,97.43752 L 168.10905,97.43752 L 190.67155,74.87502 L 190.2028,74.87502 z M 193.6403,74.87502 L 171.0778,97.43752 L 171.5778,97.43752 L 194.1403,74.87502 L 193.6403,74.87502 z M 197.10905,74.87502 L 174.54655,97.43752 L 175.04655,97.43752 L 197.60905,74.87502 L 197.10905,74.87502 z M 200.54655,74.87502 L 177.98405,97.43752 L 178.48405,97.43752 L 201.04655,74.87502 L 200.54655,74.87502 z M 203.98405,74.87502 L 181.42155,97.43752 L 181.8903,97.43752 L 204.48405,74.87502 L 203.98405,74.87502 z M 207.4528,74.87502 L 184.8903,97.43752 L 185.35905,97.43752 L 207.92155,74.87502 L 207.4528,74.87502 z M 210.8903,74.87502 L 188.3278,97.43752 L 188.79655,97.43752 L 211.35905,74.87502 L 210.8903,74.87502 z M 214.3278,74.87502 L 191.73405,97.43752 L 192.23405,97.43752 L 214.8278,74.87502 L 214.3278,74.87502 z M 217.7653,74.87502 L 195.2028,97.43752 L 195.7028,97.43752 L 218.2653,74.87502 L 217.7653,74.87502 z M 221.2028,74.87502 L 198.6403,97.43752 L 199.1403,97.43752 L 221.7028,74.87502 L 221.2028,74.87502 z M 224.67155,74.87502 L 202.10905,97.43752 L 202.60905,97.43752 L 225.17155,74.87502 L 224.67155,74.87502 z M 228.10905,74.87502 L 205.54655,97.43752 L 206.0153,97.43752 L 228.5778,74.87502 L 228.10905,74.87502 z M 231.5778,74.87502 L 208.98405,97.43752 L 209.4528,97.43752 L 232.04655,74.87502 L 231.5778,74.87502 z"
       id="path3088"
       inkscape:connector-curvature="0" />
  </g>
</svg>
